<svg width="599px" height="88px" viewBox="0 0 599 88" version="1.1" xmlns="http://www.w3.org/2000/svg" xmlns:xlink="http://www.w3.org/1999/xlink">
    <defs>
        <linearGradient x1="50%" y1="0%" x2="50%" y2="100%" id="linearGradient-1">
            <stop stop-color="#000000" stop-opacity="0.6580899" offset="0%"></stop>
            <stop stop-color="#1DD362" offset="5.41004335%"></stop>
            <stop stop-color="#003413" offset="100%"></stop>
            <stop stop-color="#1ED760" offset="100%"></stop>
        </linearGradient>
        <linearGradient x1="50%" y1="0%" x2="50%" y2="100%" id="linearGradient-2">
            <stop stop-color="#1ED760" offset="0%"></stop>
            <stop stop-color="#003413" offset="100%"></stop>
        </linearGradient>
    </defs>
    <g id="Page-1" stroke="none" stroke-width="1" fill="none" fill-rule="evenodd">
        <g id="Artboard" transform="translate(-561.000000, -1629.000000)">
            <g id="Group-21" transform="translate(561.000000, 1629.000000)">
                <g id="Group-3">
                    <path d="M103,0 L114,0 C125.045695,-2.02906125e-15 134,8.954305 134,20 L134,83 L134,83 C116.879173,83 103,69.1208272 103,52 L103,0 Z" id="Rectangle-Copy-7" fill="url(#linearGradient-1)" fill-rule="nonzero"></path>
                    <path d="M132,44.7 C132,38.8439707 133.118322,33.3133594 135.355,28.108 C137.591678,22.9026406 140.641647,18.3683526 144.505,14.505 C148.368353,10.6416474 152.902641,7.59167785 158.108,5.355 C163.313359,3.11832215 168.843971,2 174.7,2 C180.556029,2 186.086641,3.11832215 191.292,5.355 C196.497359,7.59167785 201.031647,10.6416474 204.895,14.505 C208.758353,18.3683526 211.808322,22.9026406 214.045,28.108 C216.281678,33.3133594 217.4,38.8439707 217.4,44.7 C217.4,50.5560293 216.281678,56.0866406 214.045,61.292 C211.808322,66.4973594 208.758353,71.0316473 204.895,74.895 C201.031647,78.7583527 196.497359,81.8083222 191.292,84.045 C186.086641,86.2816779 180.556029,87.4 174.7,87.4 C168.843971,87.4 163.313359,86.2816779 158.108,84.045 C152.902641,81.8083222 148.368353,78.7583527 144.505,74.895 C140.641647,71.0316473 137.591678,66.4973594 135.355,61.292 C133.118322,56.0866406 132,50.5560293 132,44.7 Z M157.62,44.7 C157.62,47.0586785 158.067329,49.2749896 158.962,51.349 C159.856671,53.4230104 161.076659,55.2326589 162.622,56.778 C164.167341,58.3233411 165.97699,59.5433289 168.051,60.438 C170.12501,61.3326711 172.341322,61.78 174.7,61.78 C177.058678,61.78 179.27499,61.3326711 181.349,60.438 C183.42301,59.5433289 185.232659,58.3233411 186.778,56.778 C188.323341,55.2326589 189.543329,53.4230104 190.438,51.349 C191.332671,49.2749896 191.78,47.0586785 191.78,44.7 C191.78,42.3413215 191.332671,40.1250104 190.438,38.051 C189.543329,35.9769896 188.323341,34.1673411 186.778,32.622 C185.232659,31.0766589 183.42301,29.8566711 181.349,28.962 C179.27499,28.0673289 177.058678,27.62 174.7,27.62 C172.341322,27.62 170.12501,28.0673289 168.051,28.962 C165.97699,29.8566711 164.167341,31.0766589 162.622,32.622 C161.076659,34.1673411 159.856671,35.9769896 158.962,38.051 C158.067329,40.1250104 157.62,42.3413215 157.62,44.7 Z M225.39,3.952 L253.45,3.952 C258.655359,3.952 263.474311,4.64332642 267.907,6.026 C272.339689,7.40867358 276.18265,9.44198658 279.436,12.126 C282.68935,14.8100134 285.230991,18.1243136 287.061,22.069 C288.891009,26.0136864 289.806,30.5479744 289.806,35.672 C289.806,39.738687 289.236672,43.1953191 288.098,46.042 C286.959328,48.8886809 285.698674,51.247324 284.316,53.118 C282.689325,55.2326772 280.859343,57.0219927 278.826,58.486 L294.076,85.326 L274.98068,85.326 C267.911821,85.326 261.36801,81.5944963 257.768236,75.5108785 L251.376,64.708 L251.376,85.326 L225.39,85.326 L225.39,3.952 Z M251.376,43.968 L252.718,43.968 C255.808682,43.968 258.431656,43.2766736 260.587,41.894 C262.742344,40.5113264 263.82,38.1933496 263.82,34.94 C263.82,31.6866504 262.742344,29.3686736 260.587,27.986 C258.431656,26.6033264 255.808682,25.912 252.718,25.912 L251.376,25.912 L251.376,43.968 Z M297.796,3.952 L324.88,3.952 L324.88,63.976 L347.328,63.976 L347.328,65.326 C347.328,76.371695 338.373695,85.326 327.328,85.326 L297.796,85.326 L297.796,3.952 Z M352.878,85.326 L352.878,3.952 L375.448,3.952 C383.093371,3.952 389.90497,4.80599146 395.883,6.514 C401.86103,8.22200854 406.903646,10.7839829 411.011,14.2 C415.118354,17.6160171 418.249656,21.8656412 420.405,26.949 C422.560344,32.0323587 423.638,37.9086333 423.638,44.578 C423.638,51.2473667 422.560344,57.1236412 420.405,62.207 C418.249656,67.2903587 415.118354,71.5399829 411.011,74.956 C406.903646,78.3720171 401.86103,80.9543246 395.883,82.703 C389.90497,84.4516754 383.093371,85.326 375.448,85.326 L352.878,85.326 Z M378.864,62.146 C384.96403,62.146 389.681317,60.7023478 393.016,57.815 C396.350683,54.9276522 398.018,50.515363 398.018,44.578 C398.018,38.640637 396.350683,34.2486809 393.016,31.402 C389.681317,28.5553191 384.96403,27.132 378.864,27.132 L378.864,62.146 Z M457.308,3.952 L505.254,3.952 L505.254,25.302 L483.294,25.302 L483.294,34.33 L504.888,34.33 L504.888,54.582 L483.294,54.582 L483.294,85.326 L477.308,85.326 C466.262305,85.326 457.308,76.371695 457.308,65.326 L457.308,3.952 Z M513.244,3.952 L524.127317,3.952 C530.750925,3.952 536.9449,7.23130209 540.668251,12.7093345 L555.944,35.184 L571.102009,12.7536507 C574.821293,7.24997119 581.030421,3.952 587.672977,3.952 L598.522,3.952 L598.522,85.326 L592.536,85.326 C581.490305,85.326 572.536,76.371695 572.536,65.326 L572.536,56.046 L555.944,80.446 L539.23,56.046 L539.23,85.326 L533.244,85.326 C522.198305,85.326 513.244,76.371695 513.244,65.326 L513.244,3.952 Z" id="ORLD-fm-Copy-2" fill="#FFFFFF"></path>
                    <rect id="Rectangle-Copy-8" fill="url(#linearGradient-2)" fill-rule="nonzero" x="55" y="0" width="25" height="83"></rect>
                    <path d="M0.836497583,0.5 L39.4455382,72.3130833 C42.8446597,78.6354728 49.44246,82.5791784 56.6206655,82.5791784 L78.5698284,82.5791784 L39.9607878,10.766095 C36.5616663,4.44370556 29.963866,0.5 22.7856605,0.5 L0.836497583,0.5 Z" id="Rectangle-Copy-9" stroke="#979797" fill="#FFFFFF" fill-rule="nonzero"></path>

                    <path d="M55,-1.0658141e-13 L77.7856605,-1.03028697e-13 C85.1479226,-1.04381122e-13 91.9148973,4.04482622 95.4011757,10.5293282 L134.406326,83.0791784 L111.620666,83.0791784 C104.258403,83.0791784 97.4914287,79.0343521 94.0051503,72.5498501 L55,-1.0658141e-13 Z" id="Rectangle-Copy-10" fill="#FFFFFF" fill-rule="nonzero"></path>
                </g>
            </g>
        </g>
    </g>
</svg>