<svg xmlns="http://www.w3.org/2000/svg" width="512" height="512"><g id="Layer_1" fill="#FFF"><path d="M169.84 253.8c2.15 0 3.73 1.1 4.73 3.24.3.86.58 1.58.86 2.15 1.58-1 3.6-1.3 6.03-.9 3.6.7 6.32 3.9 8.18 9.7 1.87 5.7 2.66 11.9 2.37 18.5 3.8-.2 7.2.4 10.4-2.3 3.8-3.2 6.1-8.4 6.9-11.7.7-.2 1.4-.2 2.2 0l2.4.4c-.8 3.9-3.8 9.9-8.8 14.3-4.3 3.7-8.7 3.6-13.3 3.8-.3 2.9-.8 5.7-1.7 8.4-1.1 4-2.9 7.2-5.2 9.7-1.4 1.4-3.1 2.5-4.9 3.2-1 .4-2.1.6-3.4.6-.9 0-1.8-.2-2.8-.5-11.3-2.3-19.4-7.1-24.1-14.5-3.3-4.7-4.9-9.6-4.9-14.7 0-2.6.4-5.2 1.3-7.8 1.3-4.2 3.7-8.1 7.3-11.9 3.6-3.7 8.3-7 14-9.7 1-.3 2-.4 2.8-.4l-.32.4zm-4.74 31c-.43 3.03-.57 5.83-.43 8.4.3 5.04 1.44 9.12 3.45 12.28 2 3.3 4.73 4.45 8.18 3.45 1.14-.3 2.22-2.6 3.23-6.9 1-4 1.8-8.53 2.36-13.56-2.2-1.15-4-2.5-5.4-4.1-1.5-1.57-2.6-3.22-3.5-4.94-.7-1.86-1.3-3.73-1.8-5.6-.3-1.58-.5-3-.5-4.3-1.6 2.15-2.8 4.44-3.7 6.9-1 2.72-1.7 5.5-2.2 8.38h.3zm15.93-22.6c-1.15.87-2 1.87-2.58 3.02-.57 1-.86 2.16-.86 3.45-.5 3.73.7 7.53 3.6 11.4.4.73.9 1.44 1.5 2.16.4-4.74.6-9.1.6-13.13 0-5.6-.8-7.9-2.4-6.9h.1z"/><path d="M227.87 274.1c.72.5 1.24 1.23 1.55 2.16.4.83.67 1.8.77 2.95.2 1.6.2 3.4.1 5.3l-.6 5.6c-.5 3.6-1 6.8-1.3 9.6-.3 2.9.1 4.5 1.2 4.7 1.3.1 3.1-1.3 5.4-4.3 2.3-3 4.7-6.4 6.9-10.2 1.5-2.6 2.7-5.1 3.9-7.7 1.1-2.4 1.9-4.6 2.5-6.5.8-.1 1.5-.1 2.1-.1.7 0 1.3.3 1.8.9-1.3 3.9-3 8.3-5.3 13.2-2.4 5-5.3 9.2-8.6 12.7-1.8 1.9-3.7 3.4-5.7 4.5-2.1 1.3-4.3 1.9-6.7 1.9h-.1c-3 0-5.4-.4-7.1-1.4-1.9-.8-3.3-2-4.2-3.5-2.1-3.5-2.2-8-.5-13.5 1.7-5.3 3.7-9.6 6-12.7-.8-.1-2.5 0-5.1.2-2.6.3-5 0-7.3-.9-1.3-.5-2.3-1.3-3.1-2.3-.9-1-1.5-2.5-1.7-4.3-.3-1.9-.5-3.7-.5-5.4 0-3.9.7-6.8 2.3-8.7 1.7-2 4.1-3.1 7.1-3.1.8 0 1.7.1 2.6.3 1.2.2 2.2.7 3.1 1.4.7.8 1.3 1.6 1.7 2.7 1 3.1.7 6.8-1 11.2-.7 1.9-1.4 3.4-2.2 4.7.9.2 1.8.3 2.8.1 2-.3 4.9.1 8.5 1.1l.63-.6zm-11.32-13.96c.2-2.17-.15-3.4-1.08-3.72-1.04-.2-2.02 1.86-2.95 6.2-1.03 4.44-1.03 7.08 0 7.9.3.32.62.57.93.78.62-1.24 1.2-2.7 1.7-4.34.73-2.27 1.2-4.55 1.4-6.82z"/><path d="M266.47 285.4c1.03 6.52 2.17 12.05 3.4 16.6s2.44 6.82 3.57 6.82c2.28 0 4.76-2.02 7.44-6.05 2.7-4.13 5.07-8.47 7.13-13.02 1.5-3.1 2.7-5.94 3.8-8.53 1.1-2.68 1.8-4.6 2.2-5.73.7-.3 1.3-.4 2.1-.4l2.2.3c-.8 2.5-2.4 6.5-4.6 12.2-2.1 5.8-5 11-8.5 15.8-2.2 3.2-4.8 5.7-7.7 7.7-2.2 1.6-4.7 2.4-7.4 2.4-.5 0-1.1-.1-1.7-.2-4.3-.6-7.9-2.2-10.8-4.8-2.9-2.6-5.2-5.9-6.8-9.8-2.6-6-3.9-13.1-3.9-21.1v-.5c0-8 .8-15.8 2.3-23.6 1-4.2 2-8.3 3.3-12.3 1.3-4 2.6-7.5 4.1-10.7 1-2 2-3.3 3.1-4 1.2-.9 2.4-1.3 3.6-1.3h.2c2.4.1 4.7 1.3 6.9 3.7 2.3 2.4 3.9 5 4.7 7.8.4 1.3.6 3.1.6 5.3 0 2.2-.2 4.6-.6 7.3-.9 5-2.7 10.4-5.4 16.1-1.1 2.5-2.5 4.8-4.2 7l.3 1.5c.4 3.8.9 7.5 1.4 11l-.7.5zm3.87-42.3c.1-4.97-.4-7.82-1.55-8.54-2.4-1.65-3.9.57-4.5 6.67-.7 6-.7 13.33-.2 22 .1 1.46.1 2.9.1 4.35 1.3-2.9 2.4-5.84 3.4-8.83 1.6-5.6 2.5-10.8 2.6-15.66h.1z"/><path d="M336.27 293.27c-.54 1.98-1.47 3.86-2.76 5.64-1.2 1.8-2.9 3.4-4.9 4.8l-1.1.7c-3.7 2.3-7.9 3.9-12.8 4.6-5.3.8-10.1.8-14.4 0-2.3-.3-4.3-.9-6-1.8-1.7-.7-2.9-1.7-3.7-2.9-.4-.6-.8-1.1-1.1-1.7-1.1-1.8-2-3.7-2.7-5.4-.9-2.3-1.4-4.6-1.5-6.7-.2-3.9.6-7.6 2.6-10.9 2-3.2 4.8-6.1 8.3-8.5l1.3-.8c1.9-1.1 3.8-2.1 5.8-2.9 2.5-.9 5-1.7 7.4-2.1 4.6-.8 8.8-.9 12.6-.2 3.8.7 6.6 1.9 8.2 3.8.6 1.3 1.1 2.6 1.3 3.9v1c1.9 2.6 3.2 5.4 4.1 8.5 1.1 3.9 1 7.7-.1 11.4l-.5-.4zm-26.53-11.37c-1.95 1.07-3.84 2.26-5.66 3.55-1.85 1.23-3.58 2.5-5.17 3.8-2.8 2.47-5 4.88-6.5 7.24-1.5 2.3-1.7 4.3-.5 6 1.1 1.5 3.4 2.3 7.1 2.4 3.7 0 7.5-.5 11.5-1.4 2.6-.6 5.1-1.4 7.5-2.2 2.4-.9 4.2-1.8 5.6-2.7 6.3-4.2 9.8-8.5 10.5-13 .6-3.6-.3-7.1-2.8-10.5-1.7-.7-4.3-.4-8 .7-4.2 1.3-8.6 3.3-13.2 5.9l-.32.2z"/><path d="M330.7 271.62c-2 0-3.34-3-5.5-6.43-.57-16.6-1.65-33.5-3.23-50.9-.57-6.3-.86-12.9-.86-19.8 0-11.8.9-24.3 2.6-37.5.9-1 1.9-1.5 3-1.5 1.3 0 2.8.7 4.6 2.1 3 2.6 6.1 4.1 9.1 4.5-.1 1.7-.2 5.6-.2 11.8 0 6.2.1 13.5.3 21.9 0 12.5-.1 26-.4 40.5-.1 14.3-1.5 40.2-2.7 49.1-2.4-.9-4.6-14.2-6.4-14.1l-.3.3zm41.77 65.18c-.54 2-1.47 3.87-2.76 5.65-1.2 1.77-2.9 3.38-4.9 4.8l-1.1.67c-3.7 2.32-7.9 3.85-12.8 4.6-5.3.77-10.1.77-14.4 0-2.3-.35-4.3-.94-6-1.78-1.7-.78-2.9-1.74-3.7-2.9-.4-.6-.8-1.18-1.1-1.7-1.2-1.88-2.1-3.7-2.7-5.44-.9-2.34-1.4-4.6-1.5-6.74-.2-3.95.7-7.6 2.7-10.92 2-3.26 4.7-6.1 8.3-8.53l1.3-.7c1.9-1.1 3.8-2.1 5.8-2.9 2.5-.9 4.9-1.7 7.4-2.1 4.6-.8 8.8-.9 12.6-.2 3.8.7 6.5 1.9 8.1 3.8.7 1.3 1.1 2.6 1.3 3.9v1c1.9 2.6 3.2 5.4 4.1 8.5 1.1 3.9 1 7.7-.1 11.3l-.5-.3zm-26.53-11.37c-1.95 1.08-3.84 2.27-5.66 3.56-1.85 1.2-3.58 2.5-5.17 3.8-2.8 2.4-5 4.8-6.5 7.2-1.5 2.3-1.7 4.3-.5 6 1.1 1.6 3.4 2.4 7.1 2.4s7.5-.5 11.5-1.4c2.6-.6 5.1-1.3 7.5-2.2s4.2-1.8 5.6-2.7c6.3-4.2 9.8-8.5 10.5-13 .6-3.6-.3-7.1-2.8-10.5-1.7-.7-4.3-.4-8 .7-4.2 1.3-8.6 3.3-13.2 5.9l-.32.2z"/><path d="M366.9 315.16c-2 0-3.34-3-5.5-6.44-.57-16.5-1.65-33.44-3.22-50.8-.58-6.32-3.07-34.97-3.07-41.86 0-11.77.9-33.08 2.6-46.28.9-1 1.9-1.5 3-1.5 1.3 0 2.8.7 4.6 2.14 3 2.6 8.3 15.12 11.3 15.55-.1 1.72-2.4 3.46-2.4 9.64 0 6.2.1 13.5.2 22 0 12.5 2.1 48 1.8 62.5-.1 14.4-1.5 40.2-2.7 49.1-2.4-.8-4.5-14.2-6.4-14h-.2z"/><path d="M359.7 168.27s12.28 13.97 21.47 16.9c9.18 2.95 27.55 12.87 22.04 29.77s-15 26.82-17.2 27.2c-2.2.36-4.6-1.85-3.9-3.68.7-1.84 18.3-14.33 6.9-21.32-11.4-6.98-14.7-9.55-19.1-3.3-4.4 6.24-11.5-45.24-11.5-45.24m-192.9 10.9c-1 1.22-2.1 2.65-2.8 3.8-1 1.74-.4 1.6-.9 3.36-1.3 4.1-3.7 8.14-5.5 12.03-2 4.4-3.3 8.7-5 13-1.4 3.9-3.8 8-4.6 12.1-.5 3.2-1.1 6.5-2.2 9.9-2.4 7.1-4.4 14.5-6.4 21.9-1.5 5.5-1.8 10.9-3.3 16.7-2.3 8.9-4.1 18.2-5.8 27.3-.5 2.6-1 5-.9 7.3.1 2.6-.2 4-3.1 5-5.3 1.8-11.5-1.4-13.4-6.5-2.6-6.4-3.7-14-5.2-20.8-.7-3.6-1.5-7.9-1.1-11.7.1-1.7.4-2.4.1-4.2.1-.5-.4-2.5-.2-2.2-.3-1.4-1.1-3-1.1-5.1-.1-2.6 0-5.3-.3-7.8-.2-.9-2.3-14.2-.2-14.4.3-.1.1.9.4.8-.1-1-.2-2.1-.1-3.1-.1 0-.1.2-.2.2.2-.1-.1-9 0-9.8l-3.9 9c-1.6 4-4.1 7.9-5.3 12-2.6 8.8-5.9 17.3-8.9 26.1-3 8.2-5.5 16.5-7.8 24.8-1.3 4.6-3.3 9.3-3.6 14.1.1.8.1 1.6 0 2.4-.8 5.1-7.8 7.9-12.4 6.6-4.4-1.3-4.5-5.4-4.1-9.3.3-3.8.4-6.8.4-10.6-.1-8.1 1.4-16.2 1.5-24.3.2-7.9.3-15.8.3-23.7.1-12.8-.7-26.2-3.1-39 1.8 10.5 1.8 22 2.3 32.5.5 13.1.1 27-.9 40.1 0-6.6-.7-13.1-.5-19.7.1-2.8.6-5.4.7-8.2.1-.2-.3-5.3-.2-5.5 0 .1 0 .3.2.4-.1-.3 0-.5 0-.8-.2 1-1-2.6-.8-2.8-.2-1.4-.2-2.9-.3-4.3 0-3.3-.1-6.2-.7-9.3-.4-1.7-2.4-15.5-1-15.8.3-.1.3 1 .5 1.2 0-1.5-.2-2.9-.4-4.5-.1.3 0 .6-.3.9 0-.5-1.4-8-1.6-8.8-5.9 6.5-6.6-5-5.8-8.7.6-3.1 2.4-7 5.7-8 .8-.2 1.1.4 1.9.2.8 0 .8-.5 1.5-.5 2.7-.2 4.9 1.8 6.5 3.9 2.1 2.6 3.4 5.5 4.3 8.7.5 2 0 3.3.4 4.6 0-.2.1-.4.2-.6.6-.3 1.9 6.3 1.1 6.4-.1.2-.7-2.7-.6-2.6 1.4 9.3 1.9 19 2.4 28.4.1-1.8-1-18.9-.8-18.9l2.2 32.1c.6 10.8 1.5 21.5 1.3 32.4l5.1-13.6c2.1-5.3 3-10.4 5.4-15.8 2.5-5.1 4.4-10.5 6.7-15.6 1.2-3.1 1.4-6 2.7-8.9 3.6-9.6 8.7-19.4 12.7-28.3.4-.9.1-1.8 1.6-2.7 1.8-.9 4.4-.1 6 .8 2.1 1 3.7 2.7 4.3 4.8.8 2.3-.4 2.7-.7 4.3l.5-.6c.5 0 .1 5.4-.4 5.5-.3.1-.4-.6-.5-1.2-.6 7.7-.4 15.3.1 22.9.2-.7-.1-6.9 0-11.3.4 8.7 1.9 26.2 2 28 .9 5.5 1.8 11 2.2 16.6.3 3.8 5.3 6 5.83 9.5 0-.2-2.6-4.2.7 2.1.2.5-3.8 6.1-3.7 6.5 1.14-7.2-4.2-12.9-2.54-20 1.1-5.2 3-10.3 3.9-15.6 2.26-12.5 6.86-20.2 10.8-32.4 4-12.1 13.3-30.3 18.5-41.9 2-4.5 4.75-8.6 6.9-13.1.56-1.1-.25-1.8 1.5-2.5 2.37-1.1 5.76 1.3 7 3.1 0 0-.15-.1.1.1 2.23 3.7-2.2 7-4.15 9.6l-1.1 1zm-53.9 76.76c-.1-1.92-.1-3.73-.2-6 .1.15-.1.34 0 .5l-.3 1.88c0 1.66.3 2.54.6 3.62h-.1zm-.5-23.3c-.1-1.6.1-2.46.2-2.5 0 0-.2 1.04-.2 2.5zm363.5 38.34c-2.8 6.35-5.6 12.86-9 19-2.2 4.46-6.2 12.83-11.7 14.03-1 .36-8-.57-7.9-1.88l.2.13c-.3-.1-.4-.4-.6-.7.1.32-2.5-1.45-3-2.17-1.2-1.5-2.1-3.4-2.8-5.2-1-3-1.6-6-2.2-8.9-.6-3.2-.7-6.3-.2-9.6.1-.6 1.2-9.9 2.2-9.9.2 0-.2 1.3.1 1.4.2-1.6.5-3.3.8-5.1-.1.4-.2.7-.4 1.1-.2-.1 2.2-11.5 2.6-13.4-4.2 5.8-5.6 13-9.8 19-2.6 3.9-3.9 10.6-5.8 15.5-1.4 4.2-2.4 10.2-8.3 6.3-1.6-1-2.7-2.5-3.4-4.3-.5-2-.1-4.2 0-6.1.2-1.8-.4-2.3-.6-4.2-.4-5.7 2.1-11.8 3.1-17.5.2-1.8 3.3-12.2.8-11.9-.3-.1-2 3.6-2.4 4.2-1.4 2.5-2.8 5.2-4 7.9-3.6 8.9-5.3 17.5-8.1 26.6-1.1 3.6-1.9 7.1-2.8 10.6-.3 1.7-1.1 3.3-1.3 5 .1.5.2 1.8.1 2.1-1 3.1-7.9.2-9.8-1.4-4-3.3-3.4-7.1-4.4-11.4-1.4-5.7-.3-11.7.6-17.5.3-2.8.8-5.7 1.6-8.6.5-1.6 1.5-3.1 1.8-4.8.3-.8-.4-1.5.9-2.4 1-.7 2.8 0 3.8.6 1.4.8 2.6 2.7 3.6 3.5 1 .9 2.7 1.4 2.5 3.7.1.3-.2.7-.3 1-.6 1.7-1.7 3.4-2.5 5.2-.4.8-1 1.8-1 2.7-.1 1.1.3 1.6.2 2.7-.1 2.3-.9 4.4-1 6.7 0 1.5-.3 3.3-.1 4.7.3 1.6 1.2 2.7 1.2 4.5 1.6-4.2 1.8-9.1 3.2-13.6 1.5-5.4 3-11.2 5.1-16.6 1.7-4.4 4-8.7 5.7-13.2 1.4-3.7 3.9-9 7.9-10.3 5.5-1.8 11.1 4.2 10.8 9.4-.3 4.1-1.9 8.5-2.6 12.5-.8 5.8-1.3 11.7-1.8 17.5 1.2-4.3 2.8-8.5 4.5-12.8l-2.3 4.8c-.3-1 9.4-20.4 10.7-22.2 3.5-4.8 11.5-10.9 15.5-2.8 3.5 7.1 1.2 16.6-.1 23.8-1.3 6.4-3.6 14.1-3.7 20.3.1-.3.2-.7.5-1 0 0 .4 7.7 1.8 7.7 3.1.1 7.6-9.5 8.9-11.7 3.4-5.5 6.5-11.2 9.6-16.83.6-1.1 5.7-11.7 7.4-8.5.2.3 0 .1 0 .1 1.8 3.9-1.5 9.9-2.9 13.2l-.9-.93zm-54.8-13l.1.16c.5-2.52 1.9-10.4.6-12.4 1.1 2.38-.8 12.77-1.2 14.13-.8 3.9-2 7.8-2.6 11.8-.5 3.3-.8 7.7-.1 11.3-.3-3.5.5-7.6 1.2-10.9.7-4.5.8-9.2 1.9-13.5 0 0 .1-.4.2-.6h-.1l.1-.2-.1.2z"/></g></svg>
